<?xml version="1.0" encoding="iso-8859-1"?>
<!-- Generator: Adobe Illustrator 19.0.0, SVG Export Plug-In . SVG Version: 6.00 Build 0)  -->
<svg version="1.1" id="Capa_1" xmlns="http://www.w3.org/2000/svg" xmlns:xlink="http://www.w3.org/1999/xlink" x="0px" y="0px"
	 viewBox="0 0 512 512" style="enable-background:new 0 0 512 512;" xml:space="preserve">
<g>
	<g>
		<g>
			<path d="M301.326,432.156c-12.779,0-23.177,10.397-23.177,23.178c0,12.779,10.398,23.177,23.177,23.177
				c12.78,0,23.178-10.397,23.178-23.177C324.504,442.554,314.107,432.156,301.326,432.156z M301.326,463.511
				c-4.509,0-8.177-3.668-8.177-8.177c0-4.509,3.668-8.178,8.177-8.178c4.509,0,8.178,3.669,8.178,8.178
				C309.504,459.843,305.835,463.511,301.326,463.511z"/>
			<path d="M376.482,455.334c0,12.779,10.397,23.177,23.178,23.177c12.78,0,23.178-10.397,23.178-23.177
				c0-12.78-10.397-23.178-23.178-23.178S376.482,442.554,376.482,455.334z M407.837,455.334c0,4.509-3.669,8.177-8.178,8.177
				c-4.509,0-8.178-3.668-8.178-8.177c0-4.509,3.669-8.178,8.178-8.178C404.168,447.156,407.837,450.825,407.837,455.334z"/>
			<path d="M385.039,233.347c-0.425-0.203-0.869-0.364-1.324-0.484c-14.555-5.244-30.236-8.11-46.575-8.11h-50.482
				c-2.62,0-4.752-2.131-4.752-4.751V90.815c0-4.143-3.357-7.5-7.5-7.5s-7.5,3.357-7.5,7.5v18.448h-68.547
				c-10.223,0-18.541,8.317-18.541,18.54v6.583c0,10.223,8.317,18.54,18.541,18.54h68.547v19.448h-68.547
				c-8.774,0-16.126,6.132-18.04,14.331h-40.392c-14.935,0-27.086,12.15-27.086,27.086v11.37c0,35.096-26.632,64.077-60.746,67.824
				V107.642c0-7.152,5.819-12.972,12.972-12.972h73.306c11.778,0,21.361-9.583,21.361-21.361V44.342
				c0-16.179,13.163-29.342,29.342-29.342h48.489c16.179,0,29.342,13.163,29.342,29.342V54.42c0,4.143,3.357,7.5,7.5,7.5
				s7.5-3.357,7.5-7.5V44.342C281.905,19.892,262.013,0,237.563,0h-48.489c-24.45,0-44.342,19.892-44.342,44.342v28.967
				c0,3.508-2.853,6.361-6.361,6.361H65.065c-15.424,0-27.972,12.548-27.972,27.972v272.295c0,17.166,12.893,31.368,29.502,33.456
				c-11.419,10.374-18.6,25.335-18.6,41.942c0,31.245,25.421,56.665,56.666,56.665c21.017,0,39.384-11.509,49.166-28.547
				C163.611,500.491,181.978,512,202.994,512c21.016,0,39.383-11.509,49.166-28.547C261.943,500.491,280.31,512,301.326,512
				c21.017,0,39.384-11.509,49.167-28.547c9.783,17.038,28.15,28.547,49.166,28.547c13.767,0,27.038-4.996,37.371-14.069
				c3.112-2.732,3.421-7.472,0.688-10.584c-2.732-3.111-7.471-3.421-10.584-0.688C419.539,493.327,409.782,497,399.659,497
				c-22.975,0-41.666-18.691-41.666-41.666c0-22.976,18.691-41.667,41.666-41.667c22.975,0,41.666,18.691,41.666,41.667
				c0,3.707-0.485,7.379-1.441,10.915c-1.082,3.998,1.282,8.117,5.28,9.198c4.001,1.084,8.116-1.281,9.198-5.28
				c1.303-4.813,1.963-9.803,1.963-14.833c0-16.464-7.063-31.304-18.311-41.667h3.163c18.599,0,33.73-15.132,33.73-33.73v-17.414
				C474.908,303.392,437.461,252.848,385.039,233.347z M266.904,137.927h-68.547c-1.952,0-3.541-1.588-3.541-3.54v-6.583
				c0-1.952,1.588-3.54,3.541-3.54h68.547V137.927z M459.673,355.022H311.845c1.282-22.038,8.184-43.27,20.191-61.813
				c12.448-19.223,29.737-34.687,50.124-44.908C425.436,265.42,456.731,306.457,459.673,355.022z M194.817,190.915
				c0-1.952,1.588-3.54,3.541-3.54h68.547v13.663h-68.547c-1.952,0-3.541-1.588-3.541-3.54V190.915z M104.661,497
				c-22.975,0-41.666-18.691-41.666-41.666c0-22.976,18.691-41.667,41.666-41.667c22.975,0,41.666,18.691,41.666,41.667
				C146.328,478.309,127.637,497,104.661,497z M143.017,413.667h21.622c-4.259,3.924-7.909,8.494-10.811,13.548
				C150.926,422.161,147.276,417.591,143.017,413.667z M202.994,497c-22.975,0-41.667-18.691-41.667-41.666
				c0-22.976,18.691-41.667,41.667-41.667c22.975,0,41.666,18.691,41.666,41.667C244.66,478.309,225.969,497,202.994,497z
				 M241.35,413.667h21.621c-4.259,3.924-7.909,8.494-10.811,13.548C249.259,422.161,245.609,417.591,241.35,413.667z M301.326,497
				c-22.975,0-41.666-18.691-41.666-41.666c0-22.976,18.691-41.667,41.666-41.667c22.976,0,41.667,18.691,41.667,41.667
				C342.993,478.309,324.302,497,301.326,497z M350.493,427.215c-2.902-5.054-6.552-9.624-10.811-13.548h21.622
				C357.045,417.591,353.395,422.161,350.493,427.215z M441.178,398.666H70.824c-10.328,0-18.731-8.402-18.731-18.73v-9.914h22.3
				c4.142,0,7.5-3.357,7.5-7.5s-3.358-7.5-7.5-7.5h-22.3v-46.97c42.399-3.806,75.746-39.519,75.746-82.891v-11.37
				c0-6.664,5.422-12.086,12.086-12.086h40.392c1.913,8.199,9.267,14.332,18.04,14.332h68.547v3.964
				c0,10.891,8.86,19.751,19.752,19.751h50.482c8.631,0,17.056,0.9,25.188,2.603c-17.101,10.969-31.734,25.483-42.883,42.701
				c-13.583,20.977-21.321,45.026-22.619,69.966H110.939c-4.142,0-7.5,3.357-7.5,7.5s3.358,7.5,7.5,7.5h348.969v9.914h0
				C459.908,390.264,451.506,398.666,441.178,398.666z"/>
			<path d="M104.661,432.156c-12.78,0-23.177,10.397-23.177,23.178c0,12.779,10.397,23.177,23.177,23.177
				c12.78,0,23.178-10.397,23.178-23.177S117.442,432.156,104.661,432.156z M104.661,463.511c-4.509,0-8.177-3.668-8.177-8.177
				c0-4.509,3.669-8.178,8.177-8.178c4.509,0,8.178,3.669,8.178,8.178C112.839,459.843,109.171,463.511,104.661,463.511z"/>
			<path d="M202.994,432.156c-12.78,0-23.178,10.397-23.178,23.178c0,12.779,10.397,23.177,23.178,23.177
				c12.78,0,23.177-10.397,23.177-23.177C226.172,442.554,215.774,432.156,202.994,432.156z M202.994,463.511
				c-4.509,0-8.178-3.668-8.178-8.177c0-4.509,3.668-8.178,8.178-8.178c4.509,0,8.177,3.669,8.177,8.178
				C211.172,459.843,207.503,463.511,202.994,463.511z"/>
		</g>
	</g>
</g>
<g>
</g>
<g>
</g>
<g>
</g>
<g>
</g>
<g>
</g>
<g>
</g>
<g>
</g>
<g>
</g>
<g>
</g>
<g>
</g>
<g>
</g>
<g>
</g>
<g>
</g>
<g>
</g>
<g>
</g>
</svg>
